<?xml version="1.0" encoding="utf-8"?><svg id="Layer_1" data-name="Layer 1" xmlns="http://www.w3.org/2000/svg" viewBox="0 0 675.85 124.91"><path d="M222.21,450.66a9.05,9.05,0,0,1-.43-2.76,9.69,9.69,0,0,1,.37-2.58,7.21,7.21,0,0,1,1.13-2.33,5.84,5.84,0,0,1,1.94-1.67,5.92,5.92,0,0,1,2.81-.64,8.21,8.21,0,0,1,1.61.16,5.77,5.77,0,0,1,1.61.54,5.28,5.28,0,0,1,1.42,1.05,4.78,4.78,0,0,1,1,1.67l5.78-4.11a10.69,10.69,0,0,0-4.37-4.37,15.32,15.32,0,0,0-12.86-.45,14.14,14.14,0,0,0-4.42,3.15,13.48,13.48,0,0,0-2.78,4.38,13.7,13.7,0,0,0-1,5,14.14,14.14,0,0,0,1,5.2,14.7,14.7,0,0,0,2.85,4.58,14.36,14.36,0,0,0,4.39,3.24,12.8,12.8,0,0,0,5.6,1.22,15.5,15.5,0,0,0,3.59-.43,15.3,15.3,0,0,0,3.46-1.24,11.69,11.69,0,0,0,2.87-2,7.75,7.75,0,0,0,1.88-2.71l-6.17-3.69a4.65,4.65,0,0,1-1,1.57,5.11,5.11,0,0,1-1.36,1.05,5.73,5.73,0,0,1-1.57.58,7.32,7.32,0,0,1-1.59.18,5.81,5.81,0,0,1-2.66-.6,6.19,6.19,0,0,1-2-1.62,7.28,7.28,0,0,1-1.24-2.32m74.64,11h7.56V434.13h-7.56v10.16h-9.24V434.13H280v27.55h7.57V450.89h9.24Zm64.21-10.44h-5l2.56-8.54Zm2.88,10.44h7.68l-9.55-27.55h-6.9l-9.59,27.55h7.72l1.63-5.4h7.34Zm48.85,0h18.8v-6.6H420.35V434.13h-7.56Zm59.68,0h18.8v-6.6H480V434.13h-7.57Zm59.69,0h19.63v-6.6H539.72v-4.35h10V444.6h-10v-3.88h11.72v-6.59H532.16Zm80.55,0h6V434.13h-7.56v14l-11.06-14h-5.9v27.55h7.57V448.13Zm67.07,0H686V447H674.7v5.43h4.77a7.74,7.74,0,0,1-5.82,2.72,6.23,6.23,0,0,1-2.6-.53,5.84,5.84,0,0,1-2-1.47,6.74,6.74,0,0,1-1.3-2.27,9.43,9.43,0,0,1,0-5.88A7.38,7.38,0,0,1,669,442.7a5.69,5.69,0,0,1,4.42-2.06,6.66,6.66,0,0,1,3.46,1,6.4,6.4,0,0,1,2.44,2.62L685,440a9.67,9.67,0,0,0-1.9-2.51,12.54,12.54,0,0,0-5.78-3.1,15.44,15.44,0,0,0-3.57-.41,14.43,14.43,0,0,0-5.57,1.07,14,14,0,0,0-4.48,2.91,13.47,13.47,0,0,0-4.08,9.76,15.56,15.56,0,0,0,1.09,6,13.41,13.41,0,0,0,2.91,4.47,12.21,12.21,0,0,0,4.27,2.77,14.06,14.06,0,0,0,5.12.95,10.27,10.27,0,0,0,6.79-2.48Zm56.42-6.6v-4.35h10V444.6h-10v-3.88h11.72v-6.59H728.63v27.55h19.63v-6.6Z" transform="translate(-72.41 -337)" style="fill:#a6a8ab"/><path d="M249.58,391.61a12.86,12.86,0,0,1-.69,4.21,10.29,10.29,0,0,1-5.09,5.91,8.44,8.44,0,0,1-3.89.9,9,9,0,0,1-5.71-2.12,13.11,13.11,0,0,1-4-5.28v-8.51a10,10,0,0,1,3.81-4.13,9.79,9.79,0,0,1,5.21-1.54,10.75,10.75,0,0,1,4.14.79,9.29,9.29,0,0,1,3.28,2.2,10.53,10.53,0,0,1,2.13,3.35,11.16,11.16,0,0,1,.78,4.22m12,8.66a25.58,25.58,0,0,0,1.39-8.59,23,23,0,0,0-1.51-8.39,21.23,21.23,0,0,0-4.19-6.77,19.15,19.15,0,0,0-14.31-6.18,17.35,17.35,0,0,0-8.49,2,17.14,17.14,0,0,0-5.95,5.52v-6.91H217.1v55.9h13.13v-21a13.81,13.81,0,0,0,5.57,5.51,17.59,17.59,0,0,0,8.53,2,17,17,0,0,0,7.47-1.66,17.86,17.86,0,0,0,5.91-4.53,21.15,21.15,0,0,0,3.85-6.81m26.64-17a23.36,23.36,0,0,1,8.61-1.52v-11.8a3.75,3.75,0,0,0-.82-.09h-1.31a13.27,13.27,0,0,0-7.38,2.55,18.68,18.68,0,0,0-5.82,6.8V371h-12v42.55h13.12V387.72a10.66,10.66,0,0,1,5.57-4.47m43.78,9.1a12.54,12.54,0,0,1-1.23,5.71,9.58,9.58,0,0,1-3.4,3.83,9.27,9.27,0,0,1-9.8,0,10,10,0,0,1-3.4-3.87,13.28,13.28,0,0,1,0-11.42,10.25,10.25,0,0,1,3.44-3.88,9,9,0,0,1,9.72,0,9.9,9.9,0,0,1,3.4,3.87,12.56,12.56,0,0,1,1.23,5.72m12,8.33a23.13,23.13,0,0,0,1.52-8.33,22.81,22.81,0,0,0-1.56-8.42,21.36,21.36,0,0,0-4.51-7,20.69,20.69,0,0,0-7.21-4.81,25.7,25.7,0,0,0-9.76-1.74,26,26,0,0,0-9.8,1.74,20.24,20.24,0,0,0-7.21,4.81,21.74,21.74,0,0,0-4.47,7,22.81,22.81,0,0,0-1.56,8.42,23.13,23.13,0,0,0,1.52,8.33,21,21,0,0,0,11.72,11.94,28.36,28.36,0,0,0,19.56,0A20.87,20.87,0,0,0,344,400.68m8.4-34.52h13.12v-12H352.39Zm11,52.52a17.55,17.55,0,0,0,2.13-8.7V371H352.39v40a4.9,4.9,0,0,1-.57,2.36,4.06,4.06,0,0,1-1.56,1.62,4.33,4.33,0,0,1-2.21.57,6.9,6.9,0,0,1-2.38-.45,5.66,5.66,0,0,1-2.05-1.27l-5.49,8.77a17.26,17.26,0,0,0,5.37,3.16,17.62,17.62,0,0,0,6.1,1.1,15.29,15.29,0,0,0,8.12-2.15,16,16,0,0,0,5.66-6m40.82-30.39H385.59a10,10,0,0,1,1.48-4.58,8.52,8.52,0,0,1,3.28-3,9.43,9.43,0,0,1,4.42-1.07,9.56,9.56,0,0,1,4.6,1.07,9.3,9.3,0,0,1,3.28,3,9.53,9.53,0,0,1,1.55,4.54m13.65,6.13a20.39,20.39,0,0,0,.13-2.23,22.54,22.54,0,0,0-2.67-10.76,20.34,20.34,0,0,0-7.83-8.06,24.21,24.21,0,0,0-12.46-3,23.93,23.93,0,0,0-12.46,3.07,21,21,0,0,0-7.91,8.12,23,23,0,0,0-2.75,11.19,22.08,22.08,0,0,0,1.56,8.22,20.3,20.3,0,0,0,4.55,6.94,21.93,21.93,0,0,0,7.25,4.74,27.78,27.78,0,0,0,18.74.22,23.42,23.42,0,0,0,7-4A18,18,0,0,0,415.6,403l-11.15-3.19a7.19,7.19,0,0,1-3.49,3.69,11.6,11.6,0,0,1-5.61,1.39,10.68,10.68,0,0,1-4.43-1,8.5,8.5,0,0,1-5.08-7.57h31.81c.05-.54.12-1.17.2-1.9m18.28,3.64a12.65,12.65,0,0,1-1.27-5.79,12.18,12.18,0,0,1,1.27-5.72,9.93,9.93,0,0,1,3.45-3.83,8.8,8.8,0,0,1,4.87-1.4,8.49,8.49,0,0,1,4.31,1.11,9,9,0,0,1,3.15,3.07l12.79-3.85a19.91,19.91,0,0,0-7.66-8.2,26.9,26.9,0,0,0-25-.08,20.86,20.86,0,0,0-7.92,8,22.18,22.18,0,0,0-2.74,10.89,22.76,22.76,0,0,0,1.56,8.41,20.88,20.88,0,0,0,4.54,7,21.74,21.74,0,0,0,7.26,4.86,25.06,25.06,0,0,0,9.76,1.78,24.7,24.7,0,0,0,8.93-1.52,22.71,22.71,0,0,0,6.81-4,18.32,18.32,0,0,0,4.5-5.86l-12.7-3.85a7.79,7.79,0,0,1-1.85,2.13,9.21,9.21,0,0,1-10.61.69,9.32,9.32,0,0,1-3.49-3.87m58.45,14.66a35.15,35.15,0,0,0,3.9-1.56L496,400.91c-.82.28-1.74.59-2.75.95a9.12,9.12,0,0,1-3,.53,3.83,3.83,0,0,1-2.71-.92,4.34,4.34,0,0,1-1.06-3.09V381h8.69V371h-8.69V357.22H473.39V371H467.9v10h5.49v22.06a11.93,11.93,0,0,0,1.64,6.62,9.2,9.2,0,0,0,4.35,3.6,16,16,0,0,0,6,1.09,24.81,24.81,0,0,0,4.71-.45,33.87,33.87,0,0,0,4.51-1.19m58.55-15.53a11.26,11.26,0,0,1-3.66,4.18,9.25,9.25,0,0,1-5.38,1.64,10,10,0,0,1-9.4-6.42,11.37,11.37,0,0,1-.78-4.26,13,13,0,0,1,.7-4.19,11.47,11.47,0,0,1,1.95-3.58,9.54,9.54,0,0,1,3-2.47,8.25,8.25,0,0,1,3.87-.92,9.53,9.53,0,0,1,5.7,1.95,11.62,11.62,0,0,1,4,5.3Zm11.2,21.51a19.69,19.69,0,0,0,1.83-8.6V370.91H554.84V378a15.74,15.74,0,0,0-5.82-5.61,17.06,17.06,0,0,0-8.51-2,19.1,19.1,0,0,0-8.06,1.67,18.76,18.76,0,0,0-6.27,4.58,21,21,0,0,0-4.07,6.85,24.37,24.37,0,0,0-1.47,8.57,23.79,23.79,0,0,0,1.39,8.21,21.06,21.06,0,0,0,3.86,6.69,18.16,18.16,0,0,0,6,4.54,18.43,18.43,0,0,0,15.63-.12,12.54,12.54,0,0,0,5.62-5.3v4.07a12.53,12.53,0,0,1-.93,5.06,9,9,0,0,1-2.57,3.42,10.73,10.73,0,0,1-3.75,1.95,15.24,15.24,0,0,1-4.47.64,18.25,18.25,0,0,1-7.5-1.55,17.13,17.13,0,0,1-5.86-4.18l-7,6.93a24.81,24.81,0,0,0,8.55,6.21,29.11,29.11,0,0,0,11.81,2.16,33.12,33.12,0,0,0,10-1.44,23.18,23.18,0,0,0,7.82-4.1,18.81,18.81,0,0,0,5.09-6.5m29.57-35.45a23.36,23.36,0,0,1,8.61-1.52v-11.8a3.88,3.88,0,0,0-.82-.09h-1.31a13.27,13.27,0,0,0-7.38,2.55,18.68,18.68,0,0,0-5.82,6.8V371h-12v42.55h13.12V387.72a10.62,10.62,0,0,1,5.57-4.47m43.53,5H618.82a10,10,0,0,1,1.48-4.58,8.52,8.52,0,0,1,3.28-3,10,10,0,0,1,9,0,9.14,9.14,0,0,1,3.28,3,9.43,9.43,0,0,1,1.56,4.54m13.65,6.13a20.41,20.41,0,0,0,.12-2.23,22.65,22.65,0,0,0-2.66-10.76,20.34,20.34,0,0,0-7.83-8.06,24.21,24.21,0,0,0-12.46-3,23.91,23.91,0,0,0-12.46,3.07,20.9,20.9,0,0,0-7.91,8.12,22.9,22.9,0,0,0-2.75,11.19,22.08,22.08,0,0,0,1.56,8.22,20.3,20.3,0,0,0,4.55,6.94,21.93,21.93,0,0,0,7.25,4.74,27.75,27.75,0,0,0,18.73.22,23.18,23.18,0,0,0,7-4,17.94,17.94,0,0,0,4.6-5.86l-11.15-3.19a7.27,7.27,0,0,1-3.49,3.69,11.6,11.6,0,0,1-5.61,1.39,10.68,10.68,0,0,1-4.43-1,8.45,8.45,0,0,1-5.08-7.57h31.81c0-.54.12-1.17.2-1.9m35.86-6.13H668.33a10,10,0,0,1,1.48-4.58,8.52,8.52,0,0,1,3.28-3,10,10,0,0,1,9,0,9.3,9.3,0,0,1,3.28,3,9.53,9.53,0,0,1,1.55,4.54m13.65,6.13a18.18,18.18,0,0,0,.13-2.23,22.54,22.54,0,0,0-2.67-10.76,20.2,20.2,0,0,0-7.83-8.06,27,27,0,0,0-24.92,0,21,21,0,0,0-7.91,8.12,23,23,0,0,0-2.75,11.19,22.08,22.08,0,0,0,1.56,8.22,20.45,20.45,0,0,0,4.55,6.94,22.07,22.07,0,0,0,7.26,4.74,27.75,27.75,0,0,0,18.73.22,23.3,23.3,0,0,0,7-4,17.78,17.78,0,0,0,4.59-5.86l-11.15-3.19a7.21,7.21,0,0,1-3.48,3.69,11.64,11.64,0,0,1-5.62,1.39,10.68,10.68,0,0,1-4.43-1,8.5,8.5,0,0,1-5.08-7.57h31.81c.05-.54.12-1.17.2-1.9m47.67,19.12V386.35a32,32,0,0,0-.49-5.5,16.07,16.07,0,0,0-1.84-5.22,10,10,0,0,0-3.94-3.84,13.89,13.89,0,0,0-6.84-1.45,25.34,25.34,0,0,0-6.89.89,17.35,17.35,0,0,0-5.65,2.67,15.64,15.64,0,0,0-4.1,4.36V371H706.7v42.55h13.12V389.19a10.47,10.47,0,0,1,2.29-3.81,12.19,12.19,0,0,1,3.45-2.61,8.06,8.06,0,0,1,3.69-1,5.39,5.39,0,0,1,4.22,1.9q1.68,1.89,1.68,6.07v23.76Z" transform="translate(-72.41 -337)" style="fill:#5cc09d"/><path d="M185.71,365.2a61.92,61.92,0,0,0-106.29,4.08,42.86,42.86,0,0,1,17-8.69,36.38,36.38,0,0,1,44.4,26.15,31.17,31.17,0,0,1-22.5,37.77,26.46,26.46,0,0,1-32.24-19,23.23,23.23,0,0,1,16.31-27.95,19.48,19.48,0,0,1,14.42,1.86,4.29,4.29,0,1,1-3.88,7.56,11.36,11.36,0,0,0-8.35-1.1,14.26,14.26,0,0,0-10.21,17.3,17.45,17.45,0,0,0,8.2,11,18.09,18.09,0,0,0,13.67,1.94,22.53,22.53,0,0,0,16.26-27.32,27.94,27.94,0,0,0-33.92-20.16,34.65,34.65,0,0,0-21.23,15.92,34.1,34.1,0,0,0-3.86,26.12,42.27,42.27,0,0,0,51.63,30.44,52.28,52.28,0,0,0,39.28-52l0-.06h0l-3.85,6.3a4.25,4.25,0,0,1-5.91,1.52,4.21,4.21,0,0,1-1.5-5.89l10.94-17.89a4,4,0,0,1,3.42-2,4.17,4.17,0,0,1,3.63,1.78L184,390a4.31,4.31,0,0,1-.19,5.22,2.61,2.61,0,0,1-.78.72,4.36,4.36,0,0,1-6.06-.87l-4-5.41a61.22,61.22,0,0,1-45.73,59.91,50.58,50.58,0,0,1-31.8-2.14,61.88,61.88,0,0,0,90.25-82.27" transform="translate(-72.41 -337)" style="fill:#5cc09d"/></svg>